<mxfile host="app.diagrams.net" modified="2020-10-26T23:52:50.908Z" agent="5.0 (Windows NT 10.0; Win64; x64) AppleWebKit/537.36 (KHTML, like Gecko) Chrome/86.0.4240.111 Safari/537.36 Edg/86.0.622.51" etag="hkOalrfZnhXY6tW68Zva" version="13.8.3" type="github">
  <diagram id="sm37lmygg3lwEjV5lF5L" name="Page-1">
    <mxGraphModel dx="1523" dy="1945" grid="1" gridSize="10" guides="1" tooltips="1" connect="1" arrows="1" fold="1" page="1" pageScale="1" pageWidth="850" pageHeight="1100" math="0" shadow="0">
      <root>
        <mxCell id="0" />
        <mxCell id="1" parent="0" />
        <mxCell id="KugvbMqyvu77IHEtdaHt-1" value="" style="rounded=0;whiteSpace=wrap;html=1;" vertex="1" parent="1">
          <mxGeometry x="40" y="-1080" width="190" height="290" as="geometry" />
        </mxCell>
        <mxCell id="KugvbMqyvu77IHEtdaHt-3" value="Question" style="text;html=1;strokeColor=none;fillColor=none;align=center;verticalAlign=middle;whiteSpace=wrap;rounded=0;" vertex="1" parent="1">
          <mxGeometry x="70" y="-1050" width="40" height="20" as="geometry" />
        </mxCell>
        <mxCell id="KugvbMqyvu77IHEtdaHt-5" value="Check Answer" style="rounded=1;whiteSpace=wrap;html=1;" vertex="1" parent="1">
          <mxGeometry x="75" y="-870" width="120" height="30" as="geometry" />
        </mxCell>
        <mxCell id="KugvbMqyvu77IHEtdaHt-6" value="" style="rounded=0;whiteSpace=wrap;html=1;" vertex="1" parent="1">
          <mxGeometry x="260" y="-1080" width="190" height="290" as="geometry" />
        </mxCell>
        <mxCell id="KugvbMqyvu77IHEtdaHt-7" value="Question" style="text;html=1;strokeColor=none;fillColor=none;align=center;verticalAlign=middle;whiteSpace=wrap;rounded=0;" vertex="1" parent="1">
          <mxGeometry x="290" y="-1050" width="40" height="20" as="geometry" />
        </mxCell>
        <mxCell id="KugvbMqyvu77IHEtdaHt-8" value="Next" style="rounded=1;whiteSpace=wrap;html=1;" vertex="1" parent="1">
          <mxGeometry x="280" y="-870" width="120" height="30" as="geometry" />
        </mxCell>
        <mxCell id="KugvbMqyvu77IHEtdaHt-9" value="Answer" style="text;html=1;strokeColor=none;fillColor=none;align=center;verticalAlign=middle;whiteSpace=wrap;rounded=0;" vertex="1" parent="1">
          <mxGeometry x="290" y="-1020" width="40" height="20" as="geometry" />
        </mxCell>
        <mxCell id="KugvbMqyvu77IHEtdaHt-10" value="" style="rounded=0;whiteSpace=wrap;html=1;" vertex="1" parent="1">
          <mxGeometry x="480" y="-1080" width="190" height="290" as="geometry" />
        </mxCell>
        <mxCell id="KugvbMqyvu77IHEtdaHt-12" value="Play again" style="rounded=1;whiteSpace=wrap;html=1;" vertex="1" parent="1">
          <mxGeometry x="500" y="-1060" width="120" height="30" as="geometry" />
        </mxCell>
        <mxCell id="KugvbMqyvu77IHEtdaHt-13" value="Main Menu" style="rounded=1;whiteSpace=wrap;html=1;" vertex="1" parent="1">
          <mxGeometry x="500" y="-1020" width="120" height="30" as="geometry" />
        </mxCell>
        <mxCell id="KugvbMqyvu77IHEtdaHt-14" value="" style="rounded=0;whiteSpace=wrap;html=1;" vertex="1" parent="1">
          <mxGeometry y="-710" width="190" height="290" as="geometry" />
        </mxCell>
        <mxCell id="KugvbMqyvu77IHEtdaHt-15" value="Question" style="text;html=1;strokeColor=none;fillColor=none;align=center;verticalAlign=middle;whiteSpace=wrap;rounded=0;" vertex="1" parent="1">
          <mxGeometry x="30" y="-680" width="40" height="20" as="geometry" />
        </mxCell>
        <mxCell id="KugvbMqyvu77IHEtdaHt-16" value="Check Answer" style="rounded=1;whiteSpace=wrap;html=1;" vertex="1" parent="1">
          <mxGeometry x="35" y="-500" width="120" height="30" as="geometry" />
        </mxCell>
        <mxCell id="KugvbMqyvu77IHEtdaHt-17" value="" style="rounded=0;whiteSpace=wrap;html=1;" vertex="1" parent="1">
          <mxGeometry x="220" y="-710" width="190" height="290" as="geometry" />
        </mxCell>
        <mxCell id="KugvbMqyvu77IHEtdaHt-18" value="Question" style="text;html=1;strokeColor=none;fillColor=none;align=center;verticalAlign=middle;whiteSpace=wrap;rounded=0;" vertex="1" parent="1">
          <mxGeometry x="250" y="-680" width="40" height="20" as="geometry" />
        </mxCell>
        <mxCell id="KugvbMqyvu77IHEtdaHt-19" value="Next" style="rounded=1;whiteSpace=wrap;html=1;" vertex="1" parent="1">
          <mxGeometry x="240" y="-500" width="120" height="30" as="geometry" />
        </mxCell>
        <mxCell id="KugvbMqyvu77IHEtdaHt-20" value="Answer" style="text;html=1;strokeColor=none;fillColor=none;align=center;verticalAlign=middle;whiteSpace=wrap;rounded=0;" vertex="1" parent="1">
          <mxGeometry x="250" y="-650" width="40" height="20" as="geometry" />
        </mxCell>
        <mxCell id="KugvbMqyvu77IHEtdaHt-24" value="Answer" style="text;html=1;strokeColor=none;fillColor=none;align=center;verticalAlign=middle;whiteSpace=wrap;rounded=0;" vertex="1" parent="1">
          <mxGeometry x="20" y="-645" width="50" height="20" as="geometry" />
        </mxCell>
        <mxCell id="KugvbMqyvu77IHEtdaHt-25" value="Player answer" style="text;html=1;strokeColor=none;fillColor=none;align=center;verticalAlign=middle;whiteSpace=wrap;rounded=0;" vertex="1" parent="1">
          <mxGeometry x="250" y="-620" width="110" height="20" as="geometry" />
        </mxCell>
        <mxCell id="KugvbMqyvu77IHEtdaHt-26" value="" style="rounded=0;whiteSpace=wrap;html=1;" vertex="1" parent="1">
          <mxGeometry x="440" y="-710" width="190" height="290" as="geometry" />
        </mxCell>
        <mxCell id="KugvbMqyvu77IHEtdaHt-27" value="85%" style="text;html=1;strokeColor=none;fillColor=none;align=center;verticalAlign=middle;whiteSpace=wrap;rounded=0;" vertex="1" parent="1">
          <mxGeometry x="510" y="-690" width="40" height="20" as="geometry" />
        </mxCell>
        <mxCell id="KugvbMqyvu77IHEtdaHt-28" value="Score" style="text;html=1;strokeColor=none;fillColor=none;align=center;verticalAlign=middle;whiteSpace=wrap;rounded=0;" vertex="1" parent="1">
          <mxGeometry x="460" y="-690" width="40" height="20" as="geometry" />
        </mxCell>
        <mxCell id="KugvbMqyvu77IHEtdaHt-32" value="75%" style="text;html=1;strokeColor=none;fillColor=none;align=center;verticalAlign=middle;whiteSpace=wrap;rounded=0;" vertex="1" parent="1">
          <mxGeometry x="530" y="-665" width="40" height="20" as="geometry" />
        </mxCell>
        <mxCell id="KugvbMqyvu77IHEtdaHt-33" value="Avg Score" style="text;html=1;strokeColor=none;fillColor=none;align=center;verticalAlign=middle;whiteSpace=wrap;rounded=0;" vertex="1" parent="1">
          <mxGeometry x="460" y="-665" width="60" height="20" as="geometry" />
        </mxCell>
        <mxCell id="KugvbMqyvu77IHEtdaHt-34" value="History" style="rounded=1;whiteSpace=wrap;html=1;" vertex="1" parent="1">
          <mxGeometry x="460" y="-630" width="120" height="30" as="geometry" />
        </mxCell>
        <mxCell id="KugvbMqyvu77IHEtdaHt-22" value="Play again" style="rounded=1;whiteSpace=wrap;html=1;" vertex="1" parent="1">
          <mxGeometry x="460" y="-540" width="120" height="30" as="geometry" />
        </mxCell>
        <mxCell id="KugvbMqyvu77IHEtdaHt-23" value="Main Menu" style="rounded=1;whiteSpace=wrap;html=1;" vertex="1" parent="1">
          <mxGeometry x="460" y="-500" width="120" height="30" as="geometry" />
        </mxCell>
      </root>
    </mxGraphModel>
  </diagram>
</mxfile>
